PathFileType	4	(X/Y/Z)	Patient4_TMGait_0pt4_02_left_29.trc.trc
DataRate	CameraRate	NumFrames	NumMarkers	Units	OrigDataRate	OrigDataStartFrame	OrigNumFrames
74.468085106383	74.468085106383	4	33	mm	74.468085106383	53	       141
Frame#	Time	Sacral			L.Shoulder			Chest			R.Shoulder			Neck			R.ASIS			L.ASIS			R.Thigh.Superior			R.Thigh.Lateral			R.Thigh.Inferior			R.Patella			L.Thigh.Superior			L.Thigh.Lateral			L.Thigh.Inferior			L.Patella			L.Shank.Superior			L.Shank.Lateral			L.Shank.Inferior			R.Shank.Superior			R.Shank.Lateral			R.Shank.Inferior			R.Heel			R.Midfoot.Superior			R.Midfoot.Lateral			R.Toe			L.Heel			L.Midfoot.Lateral			L.Midfoot.Superior			L.Toe			L.Elbow			L.Wrist			R.Elbow			R.Wrist			
		X1	Y1	Z1	X2	Y2	Z2	X3	Y3	Z3	X4	Y4	Z4	X5	Y5	Z5	X6	Y6	Z6	X7	Y7	Z7	X8	Y8	Z8	X9	Y9	Z9	X10	Y10	Z10	X11	Y11	Z11	X12	Y12	Z12	X13	Y13	Z13	X14	Y14	Z14	X15	Y15	Z15	X16	Y16	Z16	X17	Y17	Z17	X18	Y18	Z18	X19	Y19	Z19	X20	Y20	Z20	X21	Y21	Z21	X22	Y22	Z22	X23	Y23	Z23	X24	Y24	Z24	X25	Y25	Z25	X26	Y26	Z26	X27	Y27	Z27	X28	Y28	Z28	X29	Y29	Z29	X30	Y30	Z30	X31	Y31	Z31	X32	Y32	Z32	X33	Y33	Z33	

53	39.588285714286	868.557466160109	1007.687170350978	416.004263283157	1052.262083633971	1436.327705470438	221.078395149653	1152.196633556461	1371.673830616848	385.426780936853	1063.911146280922	1445.253703542706	557.272856513635	1030.769468240566	1499.870506406653	376.068247447222	1100.657019175681	952.274931578869	530.506829017625	1082.784916076712	964.923933937469	256.741251537290	1184.431459050939	780.770884706371	504.883667840901	1146.531895528051	662.129434111743	586.167961519034	1235.832484579890	620.759058152289	508.516284987965	1256.532152701403	511.168199528145	535.012212559728	1132.460561533633	752.113698026679	283.995319824338	1041.176865187296	635.030664556568	231.640958044018	1128.818822383525	559.084066235757	291.508432883693	1129.504807717633	490.172252113900	303.317537456133	1101.839473061915	417.238019140565	298.184397992240	1009.080500877958	302.601933815744	251.947972818168	1060.762238010280	192.707063453561	325.214020232328	1184.424718530520	433.834745130371	546.937863919374	1067.896339439614	391.065323057732	614.501336110513	1056.140695537784	279.878003919764	569.560263200645	858.375614542978	211.367629673006	555.681345236153	1030.474277277228	156.501072365414	586.187541612650	922.628023928417	151.405215110738	624.052690858714	1098.193531488431	42.980289257086	604.883599997233	933.293420104584	38.957032673392	376.537466490092	1003.622452788202	34.920591859234	292.483755534487	1087.935529044316	96.111669732806	316.397185545320	1215.768589018511	42.961076459230	282.930904216549	1086.298778640761	1099.806411546942	70.598487372872	1279.769913139165	923.989125791174	38.368912673859	997.114273965742	1104.485717704601	679.983016270050	1042.661153682562	846.579047245065	689.784491785260	
54	39.601714285714	867.554906802220	1008.482013591225	414.260719752820	1053.133951577471	1437.189033281333	220.337307690025	1151.497866874774	1372.407074208107	385.525918273477	1061.670497951516	1446.011101153752	556.517119463329	1030.206203016290	1500.597773699172	375.250136141835	1098.982559820003	953.394141459584	530.087543475295	1082.624107387499	965.404158566935	256.311332258907	1184.014151162483	783.456539765007	504.448703788276	1147.873913877993	664.848298336272	586.512822609629	1237.094509959973	624.079729682779	508.459806538110	1259.786483145166	515.459640478675	535.479829882136	1130.148577639572	751.542688346868	284.092070396651	1037.744860783670	635.293137068263	231.270664204205	1124.325171204726	558.571838427423	291.438139693048	1124.244132538637	489.858212261615	303.238916842143	1096.560346295966	417.165127407585	297.922179798150	1003.589808708528	302.641255922556	251.694550076720	1055.361561249530	192.773569266345	325.038158796251	1189.803524788792	436.639882349396	547.635872582931	1074.869128964655	389.856933433742	615.078812875019	1067.234670392617	278.232822975661	570.383209756183	872.288830744357	201.998339949538	556.157544676929	1046.283911226663	154.442155264702	587.692388917467	938.613464230230	144.981788219617	624.988025452018	1118.186000247248	43.948819170701	606.771805584385	927.813159670802	38.961771423495	376.501339692876	998.181267304005	34.897584637022	292.442496096591	1082.473729195577	96.080571958230	316.354831678418	1210.325350262465	43.041498425132	282.913220982463	1091.628122675322	1102.411931324020	67.952353882868	1291.286070325298	933.577212958555	35.946982432887	985.819063128197	1107.270501074474	678.324651922657	1022.043985001645	847.958912695239	688.441458428210	
55	39.615142857143	866.566224667649	1009.268904859009	412.595182707326	1054.120956009154	1437.947381920880	219.708082357393	1150.880332208863	1373.060120426058	385.745098430086	1059.543212545220	1446.766085187531	555.834246961286	1029.719269625328	1501.255106717125	374.517828196885	1097.270573515567	954.397606001282	529.869124727922	1082.515426596908	965.815560158063	256.074619241926	1183.235539093136	785.710008533412	504.301328626211	1148.539660019302	667.165843947702	587.048869892509	1237.553608580906	626.812405096157	508.572602239631	1262.086434425606	519.405698573231	536.091499473079	1127.746573932973	750.956019275146	284.514350397969	1034.318154817912	635.575941536386	230.970044110599	1119.733158894611	558.057879919471	291.530867815093	1118.843809639849	489.556037703320	303.274315899572	1091.180399923700	417.113895690064	297.742352722539	998.065012929947	302.682184082957	251.498729737483	1049.933780309244	192.847265293777	324.901647941351	1194.599816169861	439.068455026213	548.478408756405	1081.703656476478	387.744654637367	615.838793882211	1078.820398023214	275.809016806537	571.364017368508	887.422060886175	190.947311591360	556.733453996001	1063.225945092779	151.611285770083	589.317360235971	955.956002102686	137.368717409245	626.115225129019	1139.774529838489	44.818757593998	609.022870269543	922.340581932415	38.962248345702	376.475697772208	992.742161645057	34.872985693045	292.411795571965	1077.016563602705	96.058721946267	316.320357435557	1204.877258636216	43.133083382052	282.906211764456	1096.614629205317	1104.879018896580	65.601162932715	1302.107975884366	943.094572626303	33.991857771849	974.925882254983	1110.289254436716	676.732918297552	1002.691613148803	850.018775987298	686.936515160121	
56	39.628571428571	865.595046442756	1010.007931609866	411.015311849703	1055.210837540803	1438.558502938831	219.191463309595	1150.344093541658	1373.597410592325	386.083939176072	1057.537620731594	1447.487134972078	555.230984125123	1029.317229010421	1501.809683768895	373.868541586509	1095.529393463090	955.246455495553	529.863215414231	1082.462917677879	966.145140448494	256.030219078832	1182.085179710691	787.471573416902	504.434323570479	1148.496837396443	669.009184713775	587.745847226924	1237.199836828826	628.892342123693	508.842414569064	1263.408419357275	522.931105169895	536.800611750435	1125.289866181762	750.350765754499	285.205700781004	1030.930393656021	635.862615810285	230.721514749399	1115.103066762943	557.538461747530	291.748888044208	1113.375902095660	489.256315911146	303.392555587572	1085.763842464219	417.070933436250	297.627153841908	992.550476024677	302.719977328461	251.343369542868	1044.495213325234	192.914573857870	324.796066310535	1198.786940556932	441.105708871997	549.423696471709	1088.431225578470	384.837428174371	616.780220822072	1090.827026666896	272.789760652336	572.483520244230	903.770280015722	178.636568064599	557.462850451369	1081.155383338700	148.252861822214	591.009461226046	974.577805605370	128.925620256755	627.434817177884	1162.649907962832	45.756406755966	611.504573110263	916.880834467582	38.958792136328	376.457262923665	987.307864622760	34.846134207770	292.389236518610	1071.568354090563	96.045972079012	316.289296714629	1199.428483864523	43.226218506860	282.910962179999	1101.273297508164	1107.140973904817	63.541403198137	1312.222071062462	952.417874082396	32.492262981089	964.513804542143	1113.464432678187	675.212997415522	984.668632915795	852.577347246700	685.335524692917	
